<svg xmlns="http://www.w3.org/2000/svg" xmlns:xlink="http://www.w3.org/1999/xlink" version="1.0" x="0px" y="0px" viewBox="0 0 100 125" enable-background="new 0 0 100 100" xml:space="preserve"><g><path fill="none" d="M51.862,71h-2.985c-0.275,0-0.498,0.225-0.498,0.5s0.223,0.5,0.498,0.5h2.985c0.275,0,0.498-0.225,0.498-0.5   S52.138,71,51.862,71z"/><path fill="none" d="M51.862,75h-2.985c-0.275,0-0.498,0.225-0.498,0.5s0.223,0.5,0.498,0.5h2.985c0.275,0,0.498-0.225,0.498-0.5   S52.138,75,51.862,75z"/><path fill="none" d="M52.487,53.565c-0.232-0.15-0.539-0.082-0.688,0.148c-0.148,0.23-0.082,0.539,0.148,0.688   c0.865,0.558,1.381,1.507,1.381,2.541c0,1.671-1.358,3.029-3.028,3.029c-1.67,0-3.03-1.358-3.03-3.029   c0-1.112,0.607-2.132,1.584-2.661c0.242-0.131,0.332-0.433,0.201-0.675s-0.434-0.331-0.674-0.2   c-1.299,0.702-2.106,2.059-2.106,3.536c0,2.219,1.806,4.024,4.025,4.024c2.218,0,4.023-1.806,4.023-4.024   C54.323,55.569,53.638,54.307,52.487,53.565z"/><path fill="none" d="M51.862,83h-2.985c-0.275,0-0.498,0.225-0.498,0.5s0.223,0.5,0.498,0.5h2.985c0.275,0,0.498-0.225,0.498-0.5   S52.138,83,51.862,83z"/><path fill="none" d="M51.862,79h-2.985c-0.275,0-0.498,0.225-0.498,0.5s0.223,0.5,0.498,0.5h2.985c0.275,0,0.498-0.225,0.498-0.5   S52.138,79,51.862,79z"/><path fill="none" d="M50.5,56.313c0.275,0,0.5-0.223,0.5-0.497v-2.985c0-0.275-0.225-0.498-0.5-0.498c-0.275,0-0.5,0.223-0.5,0.498   v2.985C50,56.091,50.225,56.313,50.5,56.313z"/><path fill="none" d="M59.988,7.01c-3.651-0.686-6.817-0.138-7.074,1.225c-0.255,1.363,2.496,3.022,6.147,3.709   c3.65,0.686,6.816,0.137,7.072-1.225C66.391,9.355,63.638,7.695,59.988,7.01z M64.932,10.493c-0.192,1.031-1.78,1.247-3.077,1.247   c-0.829,0-1.765-0.093-2.705-0.27c-2.604-0.489-5.289-1.639-5.033-3.009c0.194-1.031,1.78-1.247,3.078-1.247   c0.829,0,1.765,0.093,2.705,0.27c1.36,0.255,2.615,0.66,3.534,1.142C64.825,9.354,65.017,10.043,64.932,10.493z"/><path fill="none" d="M50,13.958c-4.362,0-7.899,2.269-7.899,5.069s3.537,5.069,7.899,5.069s7.898-2.27,7.898-5.069   S54.362,13.958,50,13.958z M50,23.403c-3.905,0-6.963-1.922-6.963-4.375c0-2.453,3.058-4.375,6.963-4.375   c3.904,0,6.963,1.922,6.963,4.375C56.963,21.481,53.904,23.403,50,23.403z"/><path fill="none" d="M47.24,8.307c-0.242-1.366-3.402-1.948-7.06-1.302c-3.657,0.646-6.427,2.277-6.186,3.641   c0.242,1.366,3.402,1.948,7.06,1.302C44.711,11.302,47.481,9.671,47.24,8.307z M44.462,10.337c-0.913,0.458-2.158,0.84-3.503,1.078   c-0.903,0.16-1.804,0.244-2.604,0.244h0c-1.312,0-2.914-0.214-3.096-1.235c-0.27-1.53,3.025-2.534,5.015-2.885   c0.903-0.16,1.804-0.244,2.604-0.244c1.312,0,2.914,0.214,3.096,1.235C46.087,9.17,45.579,9.778,44.462,10.337z"/><path d="M60.41,24.462c-1.3,1.875-3.854,3.797-10.41,3.797c-7.176,0-9.562-2.302-10.749-4.327   c-1.134,2.075-3.183,6.39-3.183,10.488c0,5.66,3.047,10.822,2.985,19.094c-0.063,8.272-1.679,13.559-1.026,19.903   C38.68,79.762,41.417,95,49.689,95c8.273,0,11.009-15.238,11.663-21.582c0.653-6.345-0.964-11.631-1.026-19.903   c-0.062-8.271,2.985-13.434,2.985-19.094C63.311,30.646,61.57,26.687,60.41,24.462z M50,52.831c0-0.275,0.225-0.498,0.5-0.498   c0.275,0,0.5,0.223,0.5,0.498v2.985c0,0.274-0.225,0.497-0.5,0.497c-0.275,0-0.5-0.223-0.5-0.497V52.831z M51.862,84h-2.985   c-0.275,0-0.498-0.225-0.498-0.5s0.223-0.5,0.498-0.5h2.985c0.275,0,0.498,0.225,0.498,0.5S52.138,84,51.862,84z M51.862,80h-2.985   c-0.275,0-0.498-0.225-0.498-0.5s0.223-0.5,0.498-0.5h2.985c0.275,0,0.498,0.225,0.498,0.5S52.138,80,51.862,80z M51.862,76h-2.985   c-0.275,0-0.498-0.225-0.498-0.5s0.223-0.5,0.498-0.5h2.985c0.275,0,0.498,0.225,0.498,0.5S52.138,76,51.862,76z M51.862,72h-2.985   c-0.275,0-0.498-0.225-0.498-0.5s0.223-0.5,0.498-0.5h2.985c0.275,0,0.498,0.225,0.498,0.5S52.138,72,51.862,72z M50.3,60.967   c-2.219,0-4.025-1.806-4.025-4.024c0-1.478,0.807-2.834,2.106-3.536c0.24-0.131,0.543-0.042,0.674,0.2s0.041,0.544-0.201,0.675   c-0.977,0.529-1.584,1.549-1.584,2.661c0,1.671,1.359,3.029,3.03,3.029c1.669,0,3.028-1.358,3.028-3.029   c0-1.034-0.516-1.983-1.381-2.541c-0.23-0.148-0.297-0.457-0.148-0.688c0.149-0.23,0.456-0.299,0.688-0.148   c1.15,0.741,1.836,2.004,1.836,3.377C54.323,59.161,52.519,60.967,50.3,60.967z"/><path d="M50,5.127c0,0-29.045-2.239-13.931,12.066c1.244,1.12,2.052,2.052,3.047,3.918c0.995,1.866,1.804,5.846,10.884,5.846   c9.081,0,9.889-3.98,10.884-5.846c0.995-1.866,1.804-2.799,3.048-3.918C79.045,2.888,50,5.127,50,5.127z M33.994,10.646   c-0.241-1.364,2.529-2.995,6.186-3.641c3.658-0.646,6.818-0.064,7.06,1.302c0.241,1.364-2.529,2.995-6.186,3.642   C37.396,12.594,34.235,12.012,33.994,10.646z M50,24.097c-4.362,0-7.899-2.27-7.899-5.069s3.537-5.069,7.899-5.069   s7.898,2.269,7.898,5.069S54.362,24.097,50,24.097z M66.134,10.719c-0.256,1.361-3.422,1.91-7.072,1.225   c-3.651-0.687-6.402-2.346-6.147-3.709c0.257-1.362,3.423-1.91,7.074-1.225C63.638,7.695,66.391,9.355,66.134,10.719z"/><path d="M42.878,7.294c-0.8,0-1.701,0.084-2.604,0.244c-1.99,0.351-5.285,1.354-5.015,2.885c0.182,1.021,1.784,1.235,3.096,1.235h0   c0.8,0,1.7-0.084,2.604-0.244c1.346-0.238,2.59-0.62,3.503-1.078c1.116-0.559,1.625-1.167,1.512-1.807   C45.792,7.509,44.19,7.294,42.878,7.294z"/><path d="M63.434,8.625c-0.919-0.481-2.174-0.886-3.534-1.142c-0.94-0.177-1.876-0.27-2.705-0.27c-1.298,0-2.884,0.216-3.078,1.247   c-0.256,1.37,2.43,2.521,5.033,3.009c0.94,0.177,1.876,0.27,2.705,0.27c1.297,0,2.885-0.216,3.077-1.247   C65.017,10.043,64.825,9.354,63.434,8.625z"/><path d="M50,14.652c-3.905,0-6.963,1.922-6.963,4.375c0,2.454,3.058,4.375,6.963,4.375c3.904,0,6.963-1.922,6.963-4.375   C56.963,16.574,53.904,14.652,50,14.652z"/></g><text x="0" y="115" fill="#000000" font-size="5px" font-weight="bold" font-family="'Helvetica Neue', Helvetica, Arial-Unicode, Arial, Sans-serif">Created by Jonathan Lutaster</text><text x="0" y="120" fill="#000000" font-size="5px" font-weight="bold" font-family="'Helvetica Neue', Helvetica, Arial-Unicode, Arial, Sans-serif">from the Noun Project</text></svg>