<svg xmlns:dc="http://purl.org/dc/elements/1.1/" xmlns:cc="http://creativecommons.org/ns#" xmlns:rdf="http://www.w3.org/1999/02/22-rdf-syntax-ns#" xmlns:svg="http://www.w3.org/2000/svg" xmlns="http://www.w3.org/2000/svg" xmlns:sodipodi="http://sodipodi.sourceforge.net/DTD/sodipodi-0.dtd" xmlns:inkscape="http://www.inkscape.org/namespaces/inkscape" version="1.1" x="0px" y="0px" viewBox="0 0 100 125"><g transform="translate(0,-952.36218)"><path style="color:#000000;enable-background:accumulate;" d="m 35.125,968.36216 c -0.82716,0 -1.25,0.38703 -1.25,1.15625 l 0.0625,1.84375 -1.65625,0 c -0.85028,0 -1.28125,0.36779 -1.28125,1.15625 l 0,7.625 c 0,0.83027 0.40972,1.21875 1.25,1.21875 l 1.6875,0 -0.0625,1.8125 c 0,0.78142 0.4097,1.1875 1.25,1.1875 l 1.875,0 0,-4 2,0 0,4 1,0 0,-4 2,0 0,4 1,0 0,-4 2,0 0,4 1,0 0,-4 2,0 0,4 1,0 0,-4 2,0 0,4 1,0 0,-4 2,0 0,4 1,0 0,-4 2,0 0,4 1,0 0,-4 2,0 0,4 1,0 0,-4 2,0 0,4 1.875,0 c 0.84688,0 1.25,-0.39387 1.25,-1.1875 l -0.0625,-1.8125 1.65625,0 c 0.85343,0 1.28125,-0.4007 1.28125,-1.21875 l 0,-7.59375 c 0,-0.80574 -0.42878,-1.1875 -1.28125,-1.1875 l -1.65625,0 0.0625,-1.84375 c 0,-0.79363 -0.40968,-1.15625 -1.25,-1.15625 l -1.875,0 0,4 -2,0 0,-4 -1,0 0,4 -2,0 0,-4 -1,0 0,4 -2,0 0,-4 -1,0 0,4 -2,0 0,-4 -1,0 0,4 -2,0 0,-4 -1,0 0,4 -2,0 0,-4 -1,0 0,4 -2,0 0,-4 -1,0 0,4 -2,0 0,-4 -1,0 0,4 -2,0 0,-4 -1.875,0 z m 12.875,17 0,10 4,0 0,-10 -4,0 z m -4,11 0,36.00004 c 0,2 2.00218,4 5.90625,4 4.09593,0 6.09375,-2 6.09375,-4 l 0,-36.00004 -12,0 z" fill="#000000" stroke="none" marker="none" visibility="visible" display="inline" overflow="visible"/></g><text x="0" y="115" fill="#000000" font-size="5px" font-weight="bold" font-family="'Helvetica Neue', Helvetica, Arial-Unicode, Arial, Sans-serif">Created by arif fajar yulianto</text><text x="0" y="120" fill="#000000" font-size="5px" font-weight="bold" font-family="'Helvetica Neue', Helvetica, Arial-Unicode, Arial, Sans-serif">from the Noun Project</text></svg>