<svg xmlns="http://www.w3.org/2000/svg" xmlns:xlink="http://www.w3.org/1999/xlink" version="1.1" x="0px" y="0px" viewBox="0 0 100 125" enable-background="new 0 0 100 100" xml:space="preserve"><g><g><path fill="#000000" d="M25.389,75.999l9.071,9.488c0.217-0.199,0.434-0.401,0.652-0.606l-9.077-9.498    C25.816,75.59,25.601,75.796,25.389,75.999z"/><path fill="#000000" d="M64.886,33.291l8.131,5.653c0.169-0.264,0.339-0.525,0.506-0.786l-8.062-5.606    C65.269,32.798,65.077,33.045,64.886,33.291z"/><path fill="#000000" d="M35.692,84.332c12.246-11.628,27.725-30.752,36.887-44.72l-8.187-5.692    c-11.436,14.583-24.017,27.845-26.99,30.709c-2.186,2.105-6.794,6.408-10.791,10.205L35.692,84.332z"/></g><path fill="#000000" d="M79.906,26.206c1.427-4.265,0.9-5.757-1.547-7.038c-0.974-0.509-1.939-0.339-2.892,0.333   c-0.767,0.539-1.523,1.402-2.271,2.492c-2.252,3.288-4.71,6.63-7.248,9.928l8.002,5.565C76.879,32.86,78.997,28.924,79.906,26.206z    M74.531,26.134c-0.349-0.495-0.231-1.179,0.264-1.528s1.18-0.23,1.528,0.264s0.231,1.179-0.264,1.528   C75.564,26.748,74.88,26.629,74.531,26.134z"/><path fill="#000000" d="M33.872,86.028l-9.061-9.479c-2.14,2.048-3.926,3.793-4.783,4.721c-2.582,2.796-3.917,6.665-2.386,8.838   c1.531,2.171,4.046,5.276,9.584,1.371C29.24,90.06,31.481,88.206,33.872,86.028z M22.153,87.454   c-0.73-1.035-0.481-2.465,0.553-3.194c1.035-0.73,2.464-0.483,3.194,0.552c0.729,1.034,0.483,2.466-0.552,3.195   C24.314,88.736,22.882,88.488,22.153,87.454z"/><path fill="#000000" d="M80.662,26.459c-0.063,0.189-0.134,0.385-0.208,0.587c1.508-0.221,2.759-0.403,3.618-0.526   c5.387-0.773,8.563-2.988,9.338-3.534c0.773-0.545,1.446-1.335,1.808-1.976s0.27-1.014,0.135-1.192   c-0.137-0.178-0.271-0.571-1.193,0.079c-0.925,0.651-1.477,1.366-2.292,1.941c-0.814,0.574-6.11,3.21-10.299,1.651   c-0.051-0.019-0.105-0.034-0.157-0.052C81.303,24.304,81.052,25.296,80.662,26.459z"/><path fill="#000000" d="M53.575,31.092c1.157-0.217,7.128-1.122,13.587-2.083c1.579-2.101,3.111-4.207,4.566-6.292   c-6.347,0.412-12.783,1.829-13.34,1.913c-0.882,0.133-10.68,1.92-12.057,2.159c-1.376,0.238-37.983,7.369-38.939,7.616   c-0.451,0.116-0.908,0.153-1.315,0.44c-1.9,1.339-2.159,3.649-1.91,5.646c0.116-1.003,0.328-2.168,0.714-2.812   c0.81-1.348,2.105-1.733,3.364-2.01c1.34-0.295,35.271-6.607,36.715-6.876c0.122-0.022,0.24,0.058,0.263,0.182   c0.023,0.123-0.058,0.24-0.181,0.264c-0.354,0.065-35.367,6.579-36.7,6.872c-1.455,0.322-2.424,0.72-3.073,1.801   c-0.597,0.994-0.747,3.515-0.777,4.23c0.28,1.055,0.63,1.842,0.779,2.053c0.363,0.516,0.888,1,1.663,0.86   c0,0,37.359-7.031,37.974-7.14c0.615-0.107,3.479-0.624,4.989-1.688c2.498-1.76,2.843-3.895,2.984-4.502   C53.022,31.115,53.21,31.161,53.575,31.092z"/></g><text x="0" y="115" fill="#000000" font-size="5px" font-weight="bold" font-family="'Helvetica Neue', Helvetica, Arial-Unicode, Arial, Sans-serif">Created by Sylvain A.</text><text x="0" y="120" fill="#000000" font-size="5px" font-weight="bold" font-family="'Helvetica Neue', Helvetica, Arial-Unicode, Arial, Sans-serif">from the Noun Project</text></svg>