<svg xmlns:x="http://ns.adobe.com/Extensibility/1.0/" xmlns:i="http://ns.adobe.com/AdobeIllustrator/10.0/" xmlns:graph="http://ns.adobe.com/Graphs/1.0/" xmlns="http://www.w3.org/2000/svg" xmlns:xlink="http://www.w3.org/1999/xlink" version="1.0" x="0px" y="0px" viewBox="0 0 160 160" style="enable-background:new 0 0 160 160;" xml:space="preserve">
<style type="text/css">
	.st0{fill:none;stroke:#000000;stroke-width:4;stroke-linecap:round;stroke-linejoin:round;stroke-miterlimit:10;}
	.st1{fill:none;stroke:#000000;stroke-width:4;stroke-miterlimit:10;}
</style>
<switch>
	<g id="brotherhoodSvg" i:extraneous="self" fill="#151515">
		<path class="st0" d="M692.9-1416.6l18.9-3c5.7-0.9,8.8-7.1,6.1-12.2l-4.5-8.6c-0.6-1.1-1.5-1.8-2.6-2.1c-1.1-0.3-2.2-0.2-3.3,0.3    l0,0l0,0c-1.1,0.6-1.8,1.5-2.1,2.6s-0.3,2.2,0.3,3.3l4.3,8.2"/>
		<path class="st0" d="M685-1382.7l-2.7-17.5l-2.7-17.5c-0.2-1.5,0.2-3,1-4.2c0.8-1.2,2.1-2,3.6-2.2l25.8-4.1"/>
		<polyline class="st0" points="698.4,-1417.4 700.9,-1401.5 703.3,-1385.6   "/>
		<path class="st0" d="M697.1-1443.2c0.5,2.9-0.3,5.7-1.9,7.9c-1.6,2.2-4,3.8-6.9,4.2c-2.9,0.5-5.7-0.3-7.9-1.9    c-2.2-1.6-3.8-4.1-4.2-7s0.3-5.7,1.9-7.9c1.6-2.2,4-3.8,6.9-4.2c2.9-0.5,5.7,0.3,7.9,1.9C695.1-1448.6,696.7-1446.1,697.1-1443.2z    "/>
		<path class="st0" d="M703.3-1385.6l5,27.9v35.1c0,3.1-2.5,5.6-5.6,5.6l0,0c-3.1,0-5.6-2.5-5.6-5.6v-32.9c0,0-3.1-14.1-3.8-15.3    c-0.7-1.2-1.6-2.3-2.6-3.2l-0.9-0.7l-0.9-0.7c-1.1-0.9-1.9-2-2.6-3.2c-0.7-1.2-1.1-2.5-1.4-3.9l0,0l0,0"/>
		<path class="st0" d="M687.6-1377l2.1,20.5v33.2c0,3.5,2.8,6.3,6.3,6.3h6.8"/>
		<path class="st0" d="M699.4-1449.2l5-2.7c4.4-2.4,7.8-6.3,9.5-11l0,0l9.6,17.7l0,0c-4.8-1-9.9-0.2-14.2,2.1l-5.2,2.8"/>
		<path class="st0" d="M699.4-1449.2L699.4-1449.2c-2.4,1.3-3.2,4.2-2,6.6l0.2,0.3c1.3,2.4,4.2,3.2,6.6,2l0,0"/>
		<line class="st0" x1="662.3" y1="-1337.7" x2="689.3" y2="-1337.7"/>
		<line class="st0" x1="709" y1="-1337.7" x2="766.9" y2="-1337.7"/>
		<ellipse class="st1" cx="730.4" cy="-1371.2" rx="6.8" ry="7"/>
		<polyline class="st0" points="723.4,-1354 723.4,-1337.7 737,-1337.7   "/>
		<path class="st0" d="M744.5-1337.8v-18.3c0-4.5-3.5-8.1-7.9-8.1h-12.5c-4.4,0-7.9,3.6-7.9,8.1v18.5"/>
		<line class="st0" x1="737" y1="-1337.7" x2="737" y2="-1354"/>
		<ellipse class="st1" cx="766.4" cy="-1371.2" rx="6.8" ry="7"/>
		<line class="st0" x1="759.4" y1="-1354" x2="759.4" y2="-1337.7"/>
		<path class="st0" d="M780.5-1337.7v-18.5c0-4.5-3.5-8.1-7.9-8.1h-12.5c-4.4,0-7.9,3.6-7.9,8.1v18.5"/>
		<line class="st0" x1="773.1" y1="-1337.7" x2="773.1" y2="-1354"/>
		<line class="st0" x1="759.4" y1="-1337.7" x2="773.1" y2="-1337.7"/>
		<ellipse class="st1" cx="667.7" cy="-1371.2" rx="6.8" ry="7"/>
		<line class="st0" x1="660.7" y1="-1354" x2="660.7" y2="-1337.7"/>
		<path class="st0" d="M653.6-1337.7v-18.5c0-4.5,3.5-8.1,7.9-8.1h12.5c4.4,0,7.9,3.6,7.9,8.1v18.3"/>
		<line class="st0" x1="674.4" y1="-1337.7" x2="674.4" y2="-1354"/>
		<line class="st0" x1="674.4" y1="-1337.7" x2="660.7" y2="-1337.7"/>
		<g>
			<path d="M31.9,69c0-0.6,0.5-1,1-1c0.6,0,1,0.5,1,1v39.7h41.3V57.4c0,0,0,0,0,0v-3.8c0,0,0-0.1,0-0.1c0-0.1,0-0.1,0-0.2     c0-0.1,0-0.1,0.1-0.2c0-0.1,0.1-0.1,0.1-0.2c0-0.1,0.1-0.1,0.2-0.1c0,0,0-0.1,0.1-0.1l20-12.6c-4-2.3-7.2-6-8.8-10.5L69.3,40.1     c-1.4,0.8-2.4,1.8-3.2,3L56.4,58c0,0,0,0,0,0c0,0,0,0,0,0c-0.1,0.1-0.2,0.2-0.3,0.3c0,0,0,0,0,0c0,0,0,0,0,0     c-0.1,0-0.1,0.1-0.2,0.1c0,0-0.1,0-0.1,0c-0.1,0-0.2,0-0.3,0c0,0,0,0,0,0c0,0,0,0,0,0c0,0,0,0,0,0c0,0,0,0,0,0     c-0.1,0-0.2,0-0.3,0c0,0-0.1,0-0.1,0c-0.1,0-0.1,0-0.2-0.1c0,0,0,0,0,0c0,0,0,0,0,0c-0.1-0.1-0.2-0.1-0.3-0.2c0,0,0,0,0,0     c0,0,0,0,0,0L44.4,42.6h-6.3C27,42.6,18,51.9,18,63.3v51.8c0,4,3.1,7.2,7,7.2s7-3.2,7-7.2v-5.3V69z"/>
			<path d="M53.6,124.3c0-0.6,0.5-1,1-1c0.6,0,1,0.5,1,1V154c0,0.6,0.5,1,1,1h17.5c0.6,0,1-0.5,1-1v-43.2H34v4.3V154     c0,0.6,0.5,1,1,1h17.5c0.6,0,1-0.5,1-1V124.3z"/>
			<path d="M85.3,110.8V154c0,0.6,0.5,1,1,1h16.7c0.6,0,1-0.5,1-1v-29.6c0-0.6,0.5-1,1-1s1,0.5,1,1V154c0,0.6,0.5,1,1,1h17.7     c0.6,0,1-0.5,1-1v-38.9v-4.3H85.3z"/>
			<path d="M134.7,47.4c-0.1,0.1-0.2,0.3-0.3,0.4c-1.6,1.9-3.8,3.1-6.2,3.3c-0.2,0-0.5,0-0.7,0c-2.1,0-4.2-0.8-5.8-2.2l-6.4-5.6     L105.6,58l0,0c-0.1,0.1-0.2,0.2-0.3,0.3c-0.2,0.1-0.4,0.2-0.6,0.2c-0.3,0-0.7-0.2-0.9-0.5l-9.5-14.5L77.4,54.1v2.3l7,1     c0.5,0.1,0.9,0.5,0.9,1v50.2H126V69c0-0.6,0.5-1,1-1c0.6,0,1,0.5,1,1v40.7v5.3c0,4,3.1,7.2,7,7.2c3.9,0,7-3.2,7-7.2V63.3     C142,56.9,139.2,51.1,134.7,47.4z"/>
			<path d="M114.7,40l8.3,7.3c1.4,1.2,3.2,1.8,5,1.7c1.9-0.1,3.6-1,4.8-2.5c2.5-3,2.2-7.6-0.7-10.2l-8.5-7.4     C122.1,33.5,118.9,37.5,114.7,40z"/>
			<path d="M38.2,22.8c0,9.8,7.8,17.8,17.3,17.8c9.5,0,17.3-8,17.3-17.8S65,5,55.5,5C46,5,38.2,13,38.2,22.8z"/>
			<path d="M87.9,22.8c0,9.8,7.8,17.8,17.3,17.8c9.5,0,17.3-8,17.3-17.8S114.7,5,105.2,5C95.6,5,87.9,13,87.9,22.8z"/>
		</g>
	</g>
</switch>
</svg>
