<svg width="580" height="400" xmlns="http://www.w3.org/2000/svg">

 <g>
  <title>background</title>
  <rect fill="none" id="canvas_background" height="402" width="582" y="-1" x="-1"/>
 </g>
 <g>
  <title>Layer 1</title>
  <rect fill="#01293C" stroke-width="0" stroke-opacity="null" x="1.499998" y="-79" width="576.000019" height="185" id="svg_2" stroke="#000"/>
  <ellipse fill="#01293C" stroke="#000" stroke-width="0" cx="289.5" cy="107.990051" id="svg_1" rx="288" ry="288"/>
  <path stroke="null" id="svg_3" d="m379.428581,226.750007l0,0c0.005321,0 0.005321,0 0,0c0.6705,0 1.30375,-0.149 1.905072,-0.383143c0.207536,-0.079821 0.377821,-0.202214 0.574714,-0.308643c0.367179,-0.196893 0.713071,-0.415071 1.027036,-0.691786c0.18625,-0.164964 0.340571,-0.340571 0.500214,-0.526821c0.255429,-0.298 0.468286,-0.611964 0.649214,-0.9685c0.122393,-0.234143 0.234143,-0.457643 0.319286,-0.713071c0.047893,-0.138357 0.138357,-0.250107 0.175607,-0.393786l37.250001,-143.678577c0.058536,-0.2235 0.010643,-0.441679 0.03725,-0.665179c0.026607,-0.228821 0.133036,-0.431036 0.133036,-0.6705c0,-0.138357 -0.069179,-0.250107 -0.079821,-0.383143c-0.026607,-0.367179 -0.11175,-0.702429 -0.212857,-1.048321c-0.095786,-0.329929 -0.180929,-0.643893 -0.329929,-0.941893c-0.154321,-0.303321 -0.345893,-0.553429 -0.553429,-0.824821c-0.212857,-0.276714 -0.415071,-0.537464 -0.675821,-0.766286c-0.244786,-0.212857 -0.5215,-0.3725 -0.803536,-0.542786c-0.319286,-0.191571 -0.627929,-0.356536 -0.984464,-0.478929c-0.122393,-0.042571 -0.218179,-0.133036 -0.345893,-0.164964c-0.228821,-0.058536 -0.452321,-0.010643 -0.681143,-0.03725c-0.2235,-0.031929 -0.420393,-0.133036 -0.654536,-0.133036l-238.314866,0l-6.609215,-27.836394c-0.03725,-0.149 -0.138357,-0.26075 -0.18625,-0.404429c-0.117071,-0.356536 -0.271393,-0.6705 -0.457643,-0.984464c-0.164964,-0.282036 -0.324607,-0.553429 -0.537464,-0.798214c-0.234143,-0.276714 -0.500214,-0.500214 -0.787571,-0.718393c-0.250107,-0.191571 -0.494893,-0.3725 -0.776929,-0.5215c-0.313964,-0.164964 -0.643893,-0.271393 -0.989786,-0.3725c-0.329929,-0.095786 -0.649214,-0.170286 -1.000429,-0.202214c-0.154321,-0.015964 -0.287357,-0.090464 -0.447,-0.090464l-37.250001,0c-2.937429,0 -5.321429,2.384 -5.321429,5.321429s2.384,5.321429 5.321429,5.321429l33.040751,0l49.579752,208.764972c0.042571,0.170286 0.143679,0.303321 0.202214,0.468286c0.085143,0.255429 0.18625,0.48425 0.308643,0.718393c0.18625,0.356536 0.399107,0.6705 0.654536,0.9685c0.159643,0.191571 0.308643,0.3725 0.494893,0.537464c0.313964,0.282036 0.659857,0.494893 1.032357,0.697107c0.196893,0.106429 0.367179,0.234143 0.574714,0.313964c0.606643,0.239464 1.245214,0.388464 1.910393,0.388464c0,0 0,0 0.005321,0l0,0l7.982143,0l0,11.568786c-12.675643,3.214143 -22.094572,14.681822 -22.094572,28.34193c0,16.134572 13.127965,29.267858 29.267858,29.267858s29.267858,-13.133286 29.267858,-29.267858c0,-14.958536 -11.292072,-27.320215 -25.798287,-29.044358l0,-10.866358l117.071433,0l0,11.568786c-12.675643,3.214143 -22.094572,14.681822 -22.094572,28.34193c0,16.134572 13.133286,29.267858 29.267858,29.267858s29.267858,-13.133286 29.267858,-29.267858c0,-14.958536 -11.292072,-27.314894 -25.798287,-29.044358l0,-10.866358l31.928573,0c2.94275,0 5.321429,-2.378679 5.321429,-5.321429s-2.378679,-5.321429 -5.321429,-5.321429l-174.058614,0l-6.321857,-26.607144l164.416185,0zm-128.523148,77.160717c0,10.270358 -8.354643,18.625001 -18.625001,18.625001s-18.625001,-8.354643 -18.625001,-18.625001s8.354643,-18.625001 18.625001,-18.625001s18.625001,8.354643 18.625001,18.625001zm127.714291,0c0,10.270358 -8.354643,18.625001 -18.625001,18.625001s-18.625001,-8.354643 -18.625001,-18.625001s8.354643,-18.625001 18.625001,-18.625001s18.625001,8.354643 18.625001,18.625001zm31.183573,-220.839294l-34.48818,133.035719l-162.830399,0l-31.598644,-133.035719l228.917223,0z" fill="#fff"/>
 </g>
</svg>