<svg xmlns:dc="http://purl.org/dc/elements/1.1/" xmlns:cc="http://creativecommons.org/ns#" xmlns:rdf="http://www.w3.org/1999/02/22-rdf-syntax-ns#" xmlns:svg="http://www.w3.org/2000/svg" xmlns="http://www.w3.org/2000/svg" xmlns:sodipodi="http://sodipodi.sourceforge.net/DTD/sodipodi-0.dtd" xmlns:inkscape="http://www.inkscape.org/namespaces/inkscape" version="1.1" x="0px" y="0px" viewBox="0 0 100 125">
  <g transform="translate(0,-952.36218)">
    <path style="text-indent:0;text-transform:none;direction:ltr;block-progression:tb;baseline-shift:baseline;color:#000000;enable-background:accumulate;" d="m 8.9999999,965.36216 c -1.1045,0 -2,0.8954 -2,2 0,1.1046 0.8955,2 2,2 l 10.6562001,0 3.5,8.71871 11.6876,29.25003 -4.6876,11.25 c -0.5137,1.2112 0.5282,2.7829 1.8438,2.7813 l 50,0 c 1.1046,0 2,-0.8954 2,-2 0,-1.1046 -0.8954,-2 -2,-2 l -47,0 3.8438,-9.25 c 0.1922,-0.4751 0.1922,-1.0249 0,-1.5 l -12,-30.00004 -4,-10 c -0.2954,-0.73 -1.0563,-1.2459 -1.8438,-1.25 z m 21.0000001,12 12,29.00004 45,-3 6,-26.00004 z m 12,48.00004 c -3.8659,0 -7,3.134 -7,7 0,3.866 3.1341,7 7,7 3.866,0 7,-3.134 7,-7 0,-3.866 -3.134,-7 -7,-7 z m 30,0 c -3.866,0 -7,3.134 -7,7 0,3.866 3.134,7 7,7 3.8659,0 7,-3.134 7,-7 0,-3.866 -3.1341,-7 -7,-7 z" fill="#fff" fill-opacity="1" stroke="none" marker="none" visibility="visible" display="inline" overflow="visible"/>
  </g>
</svg>
