<svg width="580" height="400" xmlns="http://www.w3.org/2000/svg">
  <rect stroke="#000" id="svg_2" height="185" width="576.000019" y="-79" x="1.499998" stroke-opacity="null" stroke-width="0" fill="#01293C"/>
  <ellipse ry="288" rx="288" id="svg_1" cy="107.990051" cx="289.5" stroke-width="0" stroke="#000" fill="#01293C"/>
  <path fill="#fff" d="M58,45.5L58,45.5C58.001,45.5,58.001,45.5,58,45.5c0.126,0,0.245-0.028,0.358-0.072c0.039-0.015,0.071-0.038,0.108-0.058  c0.069-0.037,0.134-0.078,0.193-0.13c0.035-0.031,0.064-0.064,0.094-0.099c0.048-0.056,0.088-0.115,0.122-0.182  c0.023-0.044,0.044-0.086,0.06-0.134c0.009-0.026,0.026-0.047,0.033-0.074l7-27c0.011-0.042,0.002-0.083,0.007-0.125  C65.98,17.583,66,17.545,66,17.5c0-0.026-0.013-0.047-0.015-0.072c-0.005-0.069-0.021-0.132-0.04-0.197  c-0.018-0.062-0.034-0.121-0.062-0.177c-0.029-0.057-0.065-0.104-0.104-0.155c-0.04-0.052-0.078-0.101-0.127-0.144  c-0.046-0.04-0.098-0.07-0.151-0.102c-0.06-0.036-0.118-0.067-0.185-0.09c-0.023-0.008-0.041-0.025-0.065-0.031  c-0.043-0.011-0.085-0.002-0.128-0.007C65.081,16.519,65.044,16.5,65,16.5H20.216l-1.242-5.231  c-0.007-0.028-0.026-0.049-0.035-0.076c-0.022-0.067-0.051-0.126-0.086-0.185c-0.031-0.053-0.061-0.104-0.101-0.15  c-0.044-0.052-0.094-0.094-0.148-0.135c-0.047-0.036-0.093-0.07-0.146-0.098c-0.059-0.031-0.121-0.051-0.186-0.07  c-0.062-0.018-0.122-0.032-0.188-0.038C18.055,10.514,18.03,10.5,18,10.5h-7c-0.552,0-1,0.448-1,1s0.448,1,1,1h6.209l9.317,39.231  c0.008,0.032,0.027,0.057,0.038,0.088c0.016,0.048,0.035,0.091,0.058,0.135c0.035,0.067,0.075,0.126,0.123,0.182  c0.03,0.036,0.058,0.07,0.093,0.101c0.059,0.053,0.124,0.093,0.194,0.131c0.037,0.02,0.069,0.044,0.108,0.059  c0.114,0.045,0.234,0.073,0.359,0.073c0,0,0,0,0.001,0l0,0H29v2.174c-2.382,0.604-4.152,2.759-4.152,5.326  c0,3.032,2.467,5.5,5.5,5.5s5.5-2.468,5.5-5.5c0-2.811-2.122-5.134-4.848-5.458V52.5h22v2.174c-2.382,0.604-4.152,2.759-4.152,5.326  c0,3.032,2.468,5.5,5.5,5.5s5.5-2.468,5.5-5.5c0-2.811-2.122-5.133-4.848-5.458V52.5h6c0.553,0,1-0.447,1-1s-0.447-1-1-1H28.291  l-1.188-5H58z M33.848,60c0,1.93-1.57,3.5-3.5,3.5s-3.5-1.57-3.5-3.5s1.57-3.5,3.5-3.5S33.848,58.07,33.848,60z M57.848,60  c0,1.93-1.57,3.5-3.5,3.5s-3.5-1.57-3.5-3.5s1.57-3.5,3.5-3.5S57.848,58.07,57.848,60z M63.708,18.5l-6.481,25H26.628l-5.938-25  H63.708z"/>
</svg>
