<svg width="100" height="100" xmlns="http://www.w3.org/2000/svg">

 <g>
  <title>background</title>
  <rect fill="none" id="canvas_background" height="402" width="582" y="-1" x="-1"/>
 </g>
 <g>
  <title>Layer 1</title>
  <g stroke="null" id="svg_1">
   <g stroke="null" id="svg_2">
    <g stroke="null" id="svg_3">
     <path stroke="null" id="svg_4" d="m69.617093,39.449137c-1.086098,3.272136 -4.617488,5.034056 -7.892141,3.940407c-3.267102,-1.089873 -5.036573,-4.620005 -3.942924,-7.890882c1.08358,-3.269619 4.621263,-5.034056 7.888365,-3.947958c3.278429,1.096166 5.041607,4.630073 3.9467,7.898433"/>
     <path stroke="null" id="svg_5" d="m63.57245,46.646578c-1.055893,-0.546195 -2.207433,-0.679598 -3.294789,-0.494596l-0.007551,-0.026429l-12.176122,2.894582l-11.942039,-1.9142l-0.740006,3.600608l12.441669,3.615711c0.12711,0.018878 0.256737,0.026429 0.386364,0.026429c0.225274,0 0.448031,-0.026429 0.665754,-0.08432l5.474536,-1.305079l-5.615489,10.892438c-0.15228,0.294492 -0.264288,0.599053 -0.356159,0.903613l-9.895695,10.458251c-0.473201,0.480752 -0.78783,1.09239 -0.901096,1.758144l-2.603865,15.272067l6.504,1.110009l2.431449,-14.250153l6.744376,-7.148359l-1.81226,8.683746c-0.03398,0.205138 -0.049082,0.356159 -0.044048,0.563814l-0.271839,15.572851l6.59713,0l0.27939,-15.420571l2.645396,-12.578847c0.021395,-0.039014 0.047824,-0.061667 0.070477,-0.100681l7.695813,-14.9222c1.334025,-2.595056 0.318404,-5.770286 -2.275393,-7.106828z"/>
    </g>
    <rect stroke="null" id="svg_6" height="12.383" width="17.561" transform="matrix(-1.2390069615840913,-0.22061749148368837,0.22061749148368837,-1.2390069615840913,93.69809886768931,141.37556583703542) " y="67.08282" x="48.298285"/>
    <rect stroke="null" id="svg_7" height="17.693" width="17.562" transform="matrix(-1.2390069615840913,-0.22061749148368837,0.22061749148368837,-1.2390069615840913,114.06639167526838,103.7222134927609) " y="48.75382" x="55.068285"/>
   </g>
  </g>
 </g>
</svg>