<svg xmlns:dc="http://purl.org/dc/elements/1.1/" xmlns:cc="http://creativecommons.org/ns#" xmlns:rdf="http://www.w3.org/1999/02/22-rdf-syntax-ns#" xmlns:svg="http://www.w3.org/2000/svg" xmlns="http://www.w3.org/2000/svg" xmlns:sodipodi="http://sodipodi.sourceforge.net/DTD/sodipodi-0.dtd" xmlns:inkscape="http://www.inkscape.org/namespaces/inkscape" version="1.1" x="0px" y="0px" viewBox="0 0 100 125">
  <g transform="translate(0,-952.36218)">
    <path style="text-indent:0;text-transform:none;direction:ltr;block-progression:tb;baseline-shift:baseline;color:#fff;enable-background:accumulate;" d="M 39.9943,963.36218 C 24.0288,963.36218 11,976.39074 11,992.35652 c 0,15.96568 13.0288,28.99438 28.9943,28.99438 6.5487,0 12.6014,-2.1864 17.4654,-5.8739 l 24.6826,24.7139 c 1.5616,1.5617 4.1248,1.5618 5.6865,0 1.5616,-1.5617 1.5616,-4.0934 0,-5.6551 l -24.714,-24.7139 c 3.6812,-4.8617 5.8739,-10.9229 5.8739,-17.46538 0,-15.96576 -13.0287,-28.99434 -28.9944,-28.99434 z m 0,7.99843 c 11.643,0 20.9959,9.35289 20.9959,20.99591 0,11.64288 -9.3529,20.99588 -20.9959,20.99588 -11.6428,0 -20.9959,-9.353 -20.9959,-20.99588 0,-11.643 9.3531,-20.99591 20.9959,-20.99591 z" fill="#fff" fill-opacity="1" stroke="none" marker="none" visibility="visible" display="inline" overflow="visible"/>
  </g>
</svg>
